<?xml version="1.0" encoding="UTF-8"?><svg id="Layer_1" xmlns="http://www.w3.org/2000/svg" width="353.01" height="496.17" viewBox="0 0 353.01 496.17"><defs><style>.cls-1{fill:#fff;}.cls-1,.cls-2{stroke:#000;stroke-miterlimit:10;}</style></defs><path class="cls-1" d="M155.51,441.58l-3-316S43.51,62.58,12.51,181.58H.51L4.51,31.58,10.51,5.58s105,14,167,14S338.51.58,338.51.58c0,0,14,46,14,183,0,0-9,7-14-12s-18-52-55-61-82,15-82,15l-4.1,316s-10.9,22,70.1,9c0,0,8-6,10,45,0,0-70-12.14-101-12.57s-98,10.57-98,10.57c0,0,0-34,6-42,0,0,62,15,71-10Z"/><path class="cls-2" d="M194.51,67.58s-7-14,59-30c0,0,54-8,64,4,0,0-14,27-54,40s-69-14-69-14Z"/><path class="cls-2" d="M111.51,38.58s-63-11-73,2c0,0,17,31,62,41s62-15,62-15c0,0-9-17-51-28Z"/></svg>