<?xml version="1.0" encoding="UTF-8"?><svg id="Layer_1" xmlns="http://www.w3.org/2000/svg" width="502.25" height="514.25" viewBox="0 0 502.25 514.25"><defs><style>.cls-1{fill:#fff;}.cls-2,.cls-3{fill:#7c2828;stroke:#000;stroke-miterlimit:10;}.cls-3{stroke-width:.25px;}</style></defs><rect class="cls-3" x=".12" y=".12" width="502" height="514"/><path class="cls-1" d="M230.94,399.1l-2.85-251.77s-103.57-50.19-133.03,44.62h-11.4l3.8-119.51,5.7-20.71s99.77,11.15,158.68,11.15,152.98-15.14,152.98-15.14c0,0,13.3,36.65,13.3,145.8,0,0-8.55,5.58-13.3-9.56s-17.1-41.43-52.26-48.6-77.92,11.95-77.92,11.95l-3.9,251.77s-10.35,17.53,66.61,7.17c0,0,7.6-4.78,9.5,35.85,0,0-66.51-9.68-95.97-10.02-29.46-.34-93.12,8.42-93.12,8.42,0,0,0-27.09,5.7-33.46,0,0,58.91,11.95,67.46-7.97Z"/><path class="cls-2" d="M270.24,102.48s-6.65-10.95,56.06-23.46c0,0,51.31-6.26,60.81,3.13,0,0-13.3,21.11-51.31,31.28s-65.56-10.95-65.56-10.95Z"/><path class="cls-2" d="M179.41,80.59s-59.86-8.6-69.36,1.56c0,0,16.15,24.24,58.91,32.06s58.91-11.73,58.91-11.73c0,0-8.55-13.29-48.46-21.89Z"/></svg>